<?xml version="1.0" standalone="no"?><!DOCTYPE svg PUBLIC "-//W3C//DTD SVG 1.1//EN" "http://www.w3.org/Graphics/SVG/1.1/DTD/svg11.dtd"><svg t="1522659738118" class="icon" style="" viewBox="0 0 1024 1024" version="1.1" xmlns="http://www.w3.org/2000/svg" p-id="2379" xmlns:xlink="http://www.w3.org/1999/xlink" width="48" height="48"><defs><style type="text/css"></style></defs><path d="M32 928v-64h64v-640a128 128 0 0 1 128-128h320a128 128 0 0 1 128 128v192h128a128 128 0 0 1 128 128v320h64v64H32z m576-704a64 64 0 0 0-64-64h-320a64 64 0 0 0-64 64v640h448v-640z m256 320a64 64 0 0 0-64-64h-128v384h192v-320z m-640 0h256v64h-256v-64z m0-128h256v64h-256v-64z m0-128h256v64h-256v-64z" p-id="2380" fill="#ffffff"></path></svg>