<?xml version="1.0" standalone="no"?><!DOCTYPE svg PUBLIC "-//W3C//DTD SVG 1.1//EN" "http://www.w3.org/Graphics/SVG/1.1/DTD/svg11.dtd"><svg t="1522659577275" class="icon" style="" viewBox="0 0 1210 1024" version="1.1" xmlns="http://www.w3.org/2000/svg" p-id="2089" xmlns:xlink="http://www.w3.org/1999/xlink" width="56.71875" height="48"><defs><style type="text/css"></style></defs><path d="M489.3686 1024H38.112819a36.130953 36.130953 0 0 1-27.974809-13.415712c-8.887909-10.824041-12.089386-26.496032-8.796439-42.96077l187.210169-935.745941A40.064196 40.064196 0 0 1 227.152403 0.000015h300.862596a36.146198 36.146198 0 0 1 36.161443 37.472524L532.969666 973.233725c-0.914708 28.462653-20.093078 50.766275-43.601066 50.766275z m-439.882915-48.784409h434.165992a15.504295 15.504295 0 0 0 0.56407-3.613095L514.99566 48.784424H234.912173zM1044.504682 363.779253H694.994883c-20.809599 0-38.341496-17.89778-39.088507-39.911744L646.393416 37.472539A36.146198 36.146198 0 0 1 682.524369 0.000015h300.893086a40.064196 40.064196 0 0 1 38.570173 31.877562L1079.355044 318.272547a39.134243 39.134243 0 0 1-7.622564 32.685554 35.063794 35.063794 0 0 1-27.227798 12.821152z m-340.073065-48.784409h324.477299L975.688175 48.784424H695.543708z" fill="#ffffff" p-id="2090"></path><path d="M1172.502774 999.607796H721.094542c-10.061784 0-18.705772-12.302818-19.208861-27.197308l-14.696303-440.889094c-0.365883-10.595364 6.220012-19.208861 14.604832-19.208861h376.234507c8.38482 0 16.967827 8.613497 19.0869 19.208861l88.2388 440.889094c2.988045 14.89449-2.789858 27.197308-12.851643 27.197308z" fill="#ffffff" p-id="2091"></path><path d="M1172.502774 1024H721.094542c-23.492742 0-42.686358-22.303622-43.58582-50.766275l-14.696304-440.889094a45.018862 45.018862 0 0 1 12.119877-32.82276 37.167621 37.167621 0 0 1 26.861915-11.601543h376.234507c20.093078 0 38.570173 16.693415 43.006506 38.814096l88.238799 440.889094c3.292948 16.464738 0.091471 32.136729-8.796439 42.96077a36.130953 36.130953 0 0 1-27.974809 13.415712z m-445.615084-48.784409h434.150748L1073.256992 536.704737H711.825504l14.498117 434.897759a15.504295 15.504295 0 0 0 0.564069 3.613095z" fill="#ffffff" p-id="2092"></path></svg>