<?xml version="1.0" standalone="no"?><!DOCTYPE svg PUBLIC "-//W3C//DTD SVG 1.1//EN" "http://www.w3.org/Graphics/SVG/1.1/DTD/svg11.dtd"><svg t="1522636222349" class="icon" style="" viewBox="0 0 1024 1024" version="1.1" xmlns="http://www.w3.org/2000/svg" p-id="957" xmlns:xlink="http://www.w3.org/1999/xlink" width="48" height="48"><defs><style type="text/css"></style></defs><path d="M512 1024c-22.4 0-41.6-9.6-54.4-25.6-9.6-12.8-22.4-28.8-35.2-48C320 812.8 128 560 128 368 128 166.4 300.8 0 512 0s384 166.4 384 368c0 192-192 444.8-294.4 579.2-12.8 19.2-25.6 35.2-35.2 48-12.8 19.2-32 28.8-54.4 28.8z m0-960C336 64 192 201.6 192 368c0 172.8 182.4 412.8 281.6 540.8 12.8 19.2 25.6 35.2 38.4 48h3.2c9.6-12.8 22.4-28.8 38.4-48 99.2-128 281.6-371.2 281.6-540.8C832 201.6 688 64 512 64z" p-id="958" fill="#8a8a8a"></path><path d="M512 496c-80 0-144-64-144-144s64-144 144-144 144 64 144 144-64 144-144 144z m0-224c-44.8 0-80 35.2-80 80s35.2 80 80 80 80-35.2 80-80-35.2-80-80-80z" p-id="959" fill="#8a8a8a"></path></svg>